PathFileType	4	(X/Y/Z)	C:/Users/beibeiliu/ov580/test_trc\sequence.21_training_dense_right.trc
DataRate	CameraRate	NumFrames	NumMarkers	Units	OrigDataRate	OrigDataStartFrame	OrigNumFrames
120	120	10	19	mm	120	1	397
Frame#	Time	ThumbCMC			ThumbMCP			ThumbIP			ThumbTip			IndexMCP			IndexPIP			IndexTip			MiddleMCP			MiddlePIP			MiddleTip			RingMCP			RingPIP			RingTip			PinkyMCP			PinkyPIP			PinkyTip			BackHand1			BackHand2			BackHand3	
		X0	Y0	Z0	X1	Y1	Z1	X2	Y2	Z2	X3	Y3	Z3	X4	Y4	Z4	X5	Y5	Z5	X6	Y6	Z6	X7	Y7	Z7	X8	Y8	Z8	X9	Y9	Z9	X10	Y10	Z10	X11	Y11	Z11	X12	Y12	Z12	X13	Y13	Z13	X14	Y14	Z14	X15	Y15	Z15	X16	Y16	Z16	X17	Y17	Z17	X18	Y18	Z18	
0	0	193.733	11.214	48.2924	174.133	0.0622196	27.1938	166.54	-4.84539	4.95352	159.125	-9.05077	-11.6111	201.695	22.6714	-17.8382	198.72	18.8661	-43.878	192.751	17.1583	-62.2686	227.532	20.5023	-22.7983	225.27	19.0439	-46.8159	230.633	15.126	-72.4268	243.523	12.905	-16.3251	246.93	10.928	-39.0143	252.346	8.58083	-60.0861	259.742	4.83668	-2.3832	268.86	3.15535	-17.6493	278.726	4.9516	-29.9099	240.311	22.2322	26.6987	239.119	27.9742	53.6981	214.943	30.6592	39.498	
1	0.00833333	190.833	12.5438	42.9062	177.255	0.936841	27.7447	167.207	-3.27444	3.01923	155.5	-8.78839	-9.58123	200.71	22.5962	-18.2903	195.756	21.254	-43.8002	195.417	16.4691	-66.2656	222.698	21.0612	-22.5973	223.628	19.0499	-51.3056	228.994	16.0921	-74.8325	240.422	14.0968	-19.2829	249.53	10.3497	-35.9491	249.671	9.48344	-60.2557	257.523	4.54625	-2.45954	268.128	3.28194	-19.3091	274.886	5.50249	-35.7172	238.988	21.8698	26.209	238.439	27.0762	52.6447	213.682	32.2772	35.7854	
2	0.0166667	188.89	13.251	47.9296	176.816	1.86841	24.985	165.016	-2.46786	3.71211	157.601	-6.76264	-11.5927	200.301	23.794	-18.8683	194.21	22.8277	-40.1861	195.034	18.4807	-63.2783	222.159	22.1201	-27.9251	222.206	20.3231	-51.0805	228.033	16.5907	-76.4392	242.216	14.3372	-17.7062	244.637	12.2437	-36.7082	249.119	9.72841	-59.31	257.27	6.32407	-4.19216	265.755	2.63105	-17.5456	272.634	5.93055	-32.0884	239.275	22.608	24.7835	241.076	28.0229	49.5486	215.268	33.2486	37.0328	
3	0.025	187.433	14.5027	44.9295	173.729	2.75248	27.6505	164.951	-1.11777	2.41954	154.417	-6.47549	-12.1404	197.463	25.4462	-16.9288	193.338	23.2792	-44.304	195.065	19.4874	-64.7963	225.163	22.6385	-25.5612	225.154	20.4679	-51.8753	228.952	16.703	-74.3733	240.284	16.9718	-19.4399	245.765	14.0065	-40.6699	246.86	10.9564	-60.3405	256.089	7.07924	-3.09322	263.159	3.96238	-16.2932	274.949	7.15816	-35.0029	236.2	25.6963	24.6143	238.841	26.9991	52.2459	210.933	33.7437	33.5817	
4	0.0333333	186.18	15.4733	43.7873	174.765	2.89856	26.7533	164.116	-1.04614	4.32222	154.747	-6.4575	-12.5482	198.432	26.1034	-20.5136	192.62	24.9529	-40.9701	194.371	19.6558	-63.6793	219.77	23.9235	-22.4055	222.104	20.639	-51.696	224.995	18.8409	-72.8193	238.171	15.7722	-14.8334	241.919	14.5641	-41.6498	246.257	12.5728	-61.8594	256.1	6.2989	-0.363601	264.924	5.76276	-20.392	274.3	7.11619	-35.4919	236.301	24.9198	27.8013	241.66	28.6924	52.0452	215.886	33.0672	37.4813	
5	0.0416667	186.581	14.7604	42.5564	176.459	2.48723	25.8221	166.081	-2.37558	8.07542	155.74	-6.65422	-9.39436	194.943	25.7274	-19.0242	196.062	23.439	-43.6315	187.759	20.9358	-66.5933	221.863	23.4833	-22.6907	224.281	21.6619	-48.2728	224.207	19.2981	-71.3944	237.124	16.5609	-18.7545	244.025	14.2706	-38.3532	242.841	11.9109	-58.3318	257.986	6.5665	-3.55929	261.485	6.13966	-17.9282	275.883	9.0278	-35.5765	239.922	23.3449	24.7664	238.34	27.9331	48.9879	215.054	33.0448	33.3402	
6	0.05	188.433	13.958	43.245	172.044	3.18193	27.2232	160.536	-1.54088	5.5137	151.484	-7.44803	-8.63863	195.687	25.3751	-19.6372	190.211	24.2309	-43.9693	192.315	19.9079	-65.6693	218.75	24.5246	-24.3086	221.253	21.9236	-48.7837	224.301	19.0147	-73.6617	240.715	15.9961	-18.544	244.465	13.4907	-38.8086	245.86	11.3621	-58.3106	254.04	6.92038	-2.19898	265.199	4.42049	-19.356	274.907	8.2283	-36.769	236.112	25.2407	27.1998	235.583	28.1667	50.9483	212.244	32.7609	33.7713	
7	0.0583333	186.823	13.3425	47.2962	172.333	2.66997	26.5815	161.883	-2.15187	6.18793	151.41	-6.80678	-10.6935	193.534	26.1667	-20.0417	192.998	22.555	-45.9057	189.729	20.2338	-68.3	220.47	23.1003	-26.2355	221.136	21.1875	-50.539	226.999	18.0053	-77.6933	241.065	15.0161	-19.3239	245.441	13.1057	-40.1675	243.079	12.4698	-58.7738	253.873	7.17918	-1.04041	260.845	5.48877	-17.37	273.984	9.19662	-33.7749	235.34	26.3558	22.6457	236.115	28.9408	52.5424	209.769	33.8454	36.5936	
8	0.0666667	189.48	12.8244	42.0352	172.505	1.46295	26.6239	164.159	-3.01911	7.50549	152.105	-8.26741	-8.53281	195.505	24.4948	-21.527	191.888	23.4146	-44.348	191.392	20.1392	-63.8004	221.129	22.6964	-25.0332	222.127	19.8972	-52.7781	223.895	18.172	-71.9185	237.461	15.6612	-15.7646	241.833	12.9556	-37.7188	245.315	11.5731	-61.5425	255.642	6.63388	-2.43364	260.862	4.99011	-20.4092	273.552	5.9658	-31.666	239.543	24.8031	24.1273	239.165	27.1696	49.2412	213.19	31.6749	37.1139	
9	0.075	186.648	13.4524	46.7915	172.091	0.70408	25.8327	162.489	-3.0119	7.49803	151.253	-7.38525	-10.4078	197.476	24.8241	-21.3684	190.223	23.1261	-40.8095	189.769	18.6768	-66.5835	217.876	23.8611	-27.7069	221.229	20.0289	-52.4852	222.589	18.8642	-72.8167	238.323	15.2306	-15.7308	240.742	13.0349	-37.7722	243.449	11.2586	-59.8934	257.435	5.64089	-1.89319	261.844	4.82516	-19.2141	270.028	8.74525	-34.3322	233.941	22.7816	26.6216	238.616	26.0114	48.1621	215.119	32.9719	37.7558	
